<svg xmlns="http://www.w3.org/2000/svg" viewBox="0 0 247 247"><defs><style>.cls-1{fill:none;}.cls-2{fill:#fff;}</style></defs><title>argos</title><g id="Layer_2" data-name="Layer 2"><g id="background"><rect class="cls-1" width="247" height="247"/></g><g id="artwotk"><path class="cls-2" d="M153.8,116.38c-1.1,3.84-3.21,6.2-6.92,6.17h-.1c-4-.1-3.14-4.49-1.84-8.27,1.43-4.19,3.8-5.73,6.61-5.66C155.72,108.73,154.91,112.48,153.8,116.38Zm-.77-12.9c-5.4-.39-12.19,1.71-15.12,10-3.9,11,3.54,14.08,8,14.21,2.24.06,10.81.62,14.49-10C163.74,108.13,158.2,103.85,153,103.48Z"/><path class="cls-2" d="M87.32,114.79H78.63A109,109,0,0,1,87,101.42S87.15,108.25,87.32,114.79Zm7.52,11c0-1.43-1.43-29.58-1.5-30.75s-1.42-1.13-1.73-1.13H87.19c-1.09,0-2.81.64-4.28,2.77-6.78,9.8-15.7,25.28-17.69,29.76-.48,1.09.41,1,.55,1H71.2c.63,0,.79-.12,1-.56l3.41-6.46H87.46c.08,3.26.15,5.73.16,6.09,0,1.18,1.31.94,1.31.94h4.59C94,127.43,94.84,127.2,94.84,125.77Z"/><path class="cls-2" d="M97.48,127.43s-1.5.16-1.27-1.11,4.21-21,4.21-21,.19-1.56,1.4-1.56h4.1s.91.08.75.82-.39,1.88-.39,1.88a10,10,0,0,1,5.69-2.7,24.56,24.56,0,0,1,4.48,0s1.27.1.36,1.14-2.71,3.23-3.06,3.82a2,2,0,0,1-1.56,1.19,6,6,0,0,0-6.86,5.27c-1.17,5.85-2.18,10.79-2.18,10.79s-.12,1.44-1.16,1.44Z"/><path class="cls-2" d="M127.63,117.06c-.92,2.35-2.75,5.53-6,5.15-4.38-.5-2-7.3-2-7.3s1.71-6.88,6.57-6.3C130.44,109.12,128.45,115,127.63,117.06ZM136.1,104l-3.54,0c-1.1,0-1.48,2.63-1.48,2.63s-.86-3-6.13-3-8.47,4.78-9.22,6.1a23.66,23.66,0,0,0-3.18,9.95c-.3,4.87,2.54,8,7.47,8.05,4.37,0,6.22-2.43,6.22-2.43-1.09,4.32-3.12,6.53-6.47,7a6.24,6.24,0,0,1-4.51-1.41,2.74,2.74,0,0,0-2.23,0,25.29,25.29,0,0,0-2.75,1.49,1.54,1.54,0,0,0-.19,2c3.32,4.2,8.79,4.07,10.18,3.94a10.85,10.85,0,0,0,5.52-1.72c3.42-2.06,5.25-6,6.07-8,1-2.35,2.74-9.92,3-11s2.41-10.43,2.76-11.73C138.1,104,136.1,104,136.1,104Z"/><path class="cls-2" d="M182.27,109.74s1.31-.71.6-1.7c-1.23-1.72-3.45-4.44-9.81-4.25-7.1.21-10,5.11-9.87,8s1.15,3.94,3.9,5c2.4.92,6.71,1.25,6.71,3.71,0,1.69-2.87,2.34-3.64,2.34a5.9,5.9,0,0,1-4.23-2.37,1.65,1.65,0,0,0-2.08-.59,31.66,31.66,0,0,0-2.86,1.5,1.81,1.81,0,0,0-.16,2.08c.37.81,2.83,4.71,9.43,4.49,6.41-.22,11.19-3.24,11.31-8.82.07-3.18-2.5-4.93-5-5.81s-5.48-1.24-5.54-3.08c0-1.21,1.48-2,2.71-2a6.19,6.19,0,0,1,3.73,1.91c.7.62,1.22,1.27,2.34.74C180.36,110.69,182.27,109.74,182.27,109.74Z"/><path class="cls-2" d="M66.38,138s-1.93-1.27-1.36-2c.9-1.12,2.32-.06,3,.17a135.54,135.54,0,0,0,57.48,11.55A144.21,144.21,0,0,0,177.9,135.9c1.19-.37,2.24-1.06,2.73-.31.36.55.2,1.19-.88,1.85a103.75,103.75,0,0,1-57.15,16.68C87.49,153.88,66.38,138,66.38,138Z"/><path class="cls-2" d="M153.8,116.38c-1.1,3.84-3.21,6.2-6.92,6.17h-.1c-4-.1-3.14-4.49-1.84-8.27,1.43-4.19,3.8-5.73,6.61-5.66,4.17.11,3.37,3.86,2.25,7.76m-.77-12.9c-5.4-.39-12.19,1.71-15.12,10-3.9,11,3.54,14.08,8,14.21,2.24.06,10.81.62,14.49-10,3.3-9.51-2.24-13.79-7.41-14.16"/><path class="cls-2" d="M87.32,114.79H78.63A109,109,0,0,1,87,101.42s.18,6.83.35,13.37m7.52,11c0-1.43-1.43-29.58-1.5-30.75s-1.42-1.13-1.73-1.13H87.19c-1.09,0-2.81.64-4.28,2.77-6.78,9.8-15.7,25.28-17.69,29.76-.48,1.09.41,1,.55,1H71.2c.63,0,.79-.12,1-.56l3.41-6.46H87.46c.08,3.26.15,5.73.16,6.09,0,1.18,1.31.94,1.31.94h4.59c.45,0,1.31-.24,1.31-1.66"/><path class="cls-2" d="M97.48,127.43s-1.5.16-1.27-1.11,4.21-21,4.21-21,.19-1.56,1.4-1.56h4.1s.91.08.75.82-.39,1.88-.39,1.88a10,10,0,0,1,5.69-2.7,24.56,24.56,0,0,1,4.48,0s1.27.1.36,1.14-2.71,3.23-3.06,3.82a2,2,0,0,1-1.56,1.19,6,6,0,0,0-6.86,5.27c-1.17,5.85-2.18,10.79-2.18,10.79s-.12,1.44-1.16,1.44Z"/><path class="cls-2" d="M127.63,117.06c-.92,2.35-2.75,5.53-6,5.15-4.38-.5-2-7.3-2-7.3s1.71-6.88,6.57-6.3c4.26.51,2.27,6.35,1.45,8.44M136.1,104l-3.54,0c-1.1,0-1.48,2.63-1.48,2.63s-.86-3-6.13-3-8.47,4.78-9.22,6.1a23.66,23.66,0,0,0-3.18,9.95c-.3,4.87,2.54,8,7.47,8.05,4.37,0,6.22-2.43,6.22-2.43-1.09,4.32-3.12,6.53-6.47,7a6.24,6.24,0,0,1-4.51-1.41,2.74,2.74,0,0,0-2.23,0,25.29,25.29,0,0,0-2.75,1.49,1.54,1.54,0,0,0-.19,2c3.32,4.2,8.79,4.07,10.18,3.94a10.85,10.85,0,0,0,5.52-1.72c3.42-2.06,5.25-6,6.07-8,1-2.35,2.74-9.92,3-11s2.41-10.43,2.76-11.73c.5-1.89-1.51-1.9-1.51-1.9"/><path class="cls-2" d="M182.27,109.74s1.31-.71.6-1.7c-1.23-1.72-3.45-4.44-9.81-4.25-7.1.21-10,5.11-9.87,8s1.15,3.94,3.9,5c2.4.92,6.71,1.25,6.71,3.71,0,1.69-2.87,2.34-3.64,2.34a5.9,5.9,0,0,1-4.23-2.37,1.65,1.65,0,0,0-2.08-.59,31.66,31.66,0,0,0-2.86,1.5,1.81,1.81,0,0,0-.16,2.08c.37.81,2.83,4.71,9.43,4.49,6.41-.22,11.19-3.24,11.31-8.82.07-3.18-2.5-4.93-5-5.81s-5.48-1.24-5.54-3.08c0-1.21,1.48-2,2.71-2a6.19,6.19,0,0,1,3.73,1.91c.7.62,1.22,1.27,2.34.74.59-.28,2.5-1.23,2.5-1.23"/><path class="cls-2" d="M66.38,138s-1.93-1.27-1.36-2c.9-1.12,2.32-.06,3,.17a135.54,135.54,0,0,0,57.48,11.55A144.21,144.21,0,0,0,177.9,135.9c1.19-.37,2.24-1.06,2.73-.31.36.55.2,1.19-.88,1.85a103.75,103.75,0,0,1-57.15,16.68C87.49,153.88,66.38,138,66.38,138"/></g></g></svg>