<?xml version="1.0" encoding="utf-8"?>
<!-- Generator: Adobe Illustrator 15.1.0, SVG Export Plug-In . SVG Version: 6.00 Build 0)  -->
<!DOCTYPE svg PUBLIC "-//W3C//DTD SVG 1.1//EN" "http://www.w3.org/Graphics/SVG/1.1/DTD/svg11.dtd">
<svg version="1.1" id="Layer_1" xmlns="http://www.w3.org/2000/svg" xmlns:xlink="http://www.w3.org/1999/xlink" x="0px" y="0px"
	 width="169px" height="31px" viewBox="0 0 169 31" enable-background="new 0 0 169 31" xml:space="preserve">
<path fill="#B68800" d="M136.524,12.394c-1.025-1.51-2.316-2.802-3.88-3.936c-1.566-1.078-3.29-1.94-5.286-2.587
	c-1.939-0.592-3.936-0.917-5.931-0.917c-1.293,0-2.692,0.163-4.206,0.593c-1.561,0.378-3.071,0.971-4.526,1.779
	c-1.511,0.809-2.857,1.779-4.098,2.859c-1.24,1.078-2.215,2.264-2.964,3.665c2.101-1.941,4.527-3.504,7.274-4.637
	c2.807-1.186,5.827-1.778,9.114-1.778c1.94,0,3.771,0.324,5.495,0.917c1.781,0.593,3.345,1.347,4.693,2.318
	c1.4,0.916,2.479,1.941,3.346,3.019c0.809,1.133,1.239,2.265,1.239,3.396c0,2.749-1.132,5.124-3.344,7.118
	c-2.266,1.938-5.718,2.911-10.354,2.911c-0.969,0-1.94-0.055-2.907-0.216c-0.916-0.162-1.888-0.323-2.861-0.485
	c1.297-1.671,1.673-3.45,1.187-5.285l-0.697,0.322c0.534,1.889,0.108,3.452-1.35,4.691c-4.419-1.185-8.844-3.179-13.316-6.036
	c-4.529-2.858-8.95-5.716-13.374-8.682c-1.616-1.078-3.233-2.102-4.797-3.125c-2.804-1.726-5.552-3.291-8.249-4.744
	C72.421,1.287,68.27,0.102,64.28,0.102c-2.318,0-4.259,0.269-5.769,0.756c-1.51,0.483-2.751,1.129-3.72,2.047
	c-1.131-0.324-2.21-0.539-3.341-0.701c-1.082-0.108-2.103-0.16-3.182-0.16c-1.672,0-3.505,0.214-5.552,0.646
	c-2.055,0.484-3.938,1.131-5.667,2.049c-1.721,0.916-3.18,2.156-4.362,3.613c-1.135,1.509-1.724,3.342-1.724,5.499
	c0,1.672,0.483,3.29,1.503,4.743c1.025,1.512,2.267,2.805,3.833,3.883c1.564,1.132,3.341,1.942,5.336,2.589
	c1.94,0.646,3.938,0.97,5.93,0.97c1.294,0,2.697-0.16,4.207-0.594c1.508-0.376,3.018-1.022,4.528-1.777
	c1.456-0.81,2.805-1.779,4.095-2.86c1.243-1.076,2.212-2.316,2.91-3.61c-2.044,1.888-4.472,3.396-7.275,4.582
	c-2.751,1.188-5.769,1.726-9.058,1.726c-1.941,0-3.772-0.271-5.554-0.863c-1.779-0.593-3.343-1.399-4.69-2.316
	c-1.346-0.917-2.479-1.942-3.289-3.074c-0.866-1.025-1.296-2.157-1.296-3.289c0-2.803,1.132-5.175,3.401-7.17
	c2.258-1.942,5.659-2.912,10.351-2.912c2.479,0,4.907,0.378,7.331,1.187c-0.431,0.862-0.646,1.778-0.646,2.696
	c-0.054,0.916,0.054,1.886,0.27,2.803l0.7-0.325c-0.27-1.077-0.375-1.993-0.213-2.856c0.16-0.808,0.429-1.562,0.862-2.21
	c4.312,1.455,8.627,3.613,12.994,6.415c4.313,2.858,8.57,5.662,12.83,8.52c1.672,1.078,3.29,2.155,4.96,3.181
	c2.537,1.563,5.122,3.019,7.601,4.312c4.152,2.156,8.197,3.235,12.134,3.235c4.363,0,7.869-0.811,10.458-2.479
	c0.863,0.213,1.779,0.376,2.694,0.484c0.915,0.055,1.834,0.107,2.807,0.107c1.724,0,3.555-0.216,5.604-0.646
	c2.051-0.485,3.937-1.133,5.665-2.05c1.724-0.97,3.182-2.155,4.312-3.612c1.182-1.51,1.779-3.342,1.779-5.444
	C138.036,15.521,137.497,13.904,136.524,12.394z M110.213,28.999c-1.182,0.216-2.264,0.27-3.23,0.27
	c-3.453,0-7.174-1.077-11.269-3.287c-3.455-1.888-7.01-4.045-10.731-6.417c-0.647-0.433-1.292-0.863-1.939-1.295
	c-4.42-2.856-8.899-5.768-13.425-8.626c-4.53-2.911-9.004-5.013-13.373-6.415c1.73-1.024,3.668-1.563,5.771-1.563
	c2.316,0,4.796,0.539,7.442,1.617c2.639,1.132,5.388,2.48,8.19,4.097c2.374,1.403,4.801,2.966,7.333,4.637
	c0.433,0.27,0.914,0.593,1.35,0.917c3.021,2.047,6.036,4.042,9.113,5.983c3.015,1.942,6.091,3.72,9.165,5.338
	c3.124,1.619,6.144,2.858,9.107,3.72C112.586,28.458,111.453,28.784,110.213,28.999z"/>
</svg>
