<svg xmlns="http://www.w3.org/2000/svg" viewBox="0 0 247 247"><defs><style>.cls-1{fill:none;}.cls-2{fill:#fff;}</style></defs><title>manchester-city</title><g id="Layer_2" data-name="Layer 2"><g id="background"><rect class="cls-1" width="247" height="247"/></g><g id="artwotk"><rect class="cls-2" x="118.48" y="160.21" width="1.9" height="8.68"/><polygon class="cls-2" points="122.18 161.94 124.83 161.94 124.83 168.89 126.73 168.89 126.73 161.94 129.37 161.94 129.37 160.21 122.18 160.21 122.18 161.94"/><polygon class="cls-2" points="134.49 163.73 132.39 160.21 130.2 160.21 133.52 165.43 133.52 168.89 135.44 168.89 135.44 165.43 138.76 160.21 136.61 160.21 134.49 163.73"/><path class="cls-2" d="M113.16,167.32a2.77,2.77,0,0,1-.06-5.52,3.07,3.07,0,0,1,2.19,1l1.23-1.41a4.57,4.57,0,0,0-3.36-1.34,4.49,4.49,0,1,0,0,9,4.38,4.38,0,0,0,3.4-1.51l-1.19-1.22A3.34,3.34,0,0,1,113.16,167.32Z"/><polygon class="cls-2" points="144.72 93.31 146.19 94.43 150.31 89.05 152.37 90.62 153.4 89.27 147.82 85 146.79 86.35 148.84 87.92 144.72 93.31"/><path class="cls-2" d="M113.41,87.71a4.3,4.3,0,0,0,2.77-2.36l-1.45-.81a3.27,3.27,0,0,1-1.79,1.57,2.7,2.7,0,0,1-1.58-5.16,2.58,2.58,0,0,1,2.34.33l.76-1.66a4.48,4.48,0,0,0-3.53-.33,4.39,4.39,0,1,0,2.49,8.42Z"/><polygon class="cls-2" points="88.83 105.24 86.67 101.34 91.65 103.94 92.49 102.34 84.96 98.34 84.03 100.1 86.24 103.82 81.93 104.13 81 105.9 88.56 109.85 89.4 108.24 84.43 105.65 88.83 105.24"/><polygon class="cls-2" points="102.41 92.61 99.56 87.89 106.01 90.43 107.31 89.65 102.9 82.35 101.34 83.29 104.1 87.84 97.89 85.38 96.44 86.25 100.86 93.55 102.41 92.61"/><polygon class="cls-2" points="120.17 86.37 120.09 82.97 123.58 82.88 123.67 86.28 125.48 86.24 125.27 77.78 123.45 77.82 123.54 81.18 120.05 81.27 119.96 77.91 118.15 77.95 118.36 86.41 120.17 86.37"/><polygon class="cls-2" points="134.79 86.42 130.24 85.43 130.63 83.59 133.81 84.28 134.66 82.82 130.97 82.02 131.35 80.3 135.83 81.28 136.19 79.64 129.93 78.28 128.12 86.62 134.45 87.99 134.79 86.42"/><polygon class="cls-2" points="153.65 102.25 154.88 101.21 151.88 97.67 153.32 96.46 155.41 98.94 157.07 98.4 154.54 95.42 155.89 94.28 158.85 97.79 160.13 96.72 156 91.82 149.49 97.31 153.65 102.25"/><path class="cls-2" d="M162.29,100.1l-7.57,3.78.81,1.62,2.44-1.22.69,1.37L157,108.52l1,1.94,1.8-3.23a2.6,2.6,0,0,0,3.1.47,2.73,2.73,0,0,0,1.23-3.93Zm-.24,6a1.24,1.24,0,0,1-1.71-.65l-.92-1.85,2.23-1.12.94,1.86A1.22,1.22,0,0,1,162.06,106.07Z"/><path class="cls-2" d="M94.7,99.64l-.87-1.9,2.49-2.64,1.95.76,1.31-1.39L90.8,91.23l-1.16,1.23L93.39,101Zm-2.89-6.3,2.9,1.13-1.6,1.69Z"/><path class="cls-2" d="M138.9,90.11a4,4,0,0,0,1.81.48,2.43,2.43,0,0,0,2.21-1.27,2.27,2.27,0,0,0,.31-1.6c-.28-1.15-1.53-2-2.3-2.7-.62-.53-.62-.92-.5-1.18.28-.61,1-.47,1.42-.26a3.51,3.51,0,0,1,1.6,1.67l1.5-.84a5.18,5.18,0,0,0-2.4-2.26c-1.44-.7-3.22-.45-3.86,1.16a2.17,2.17,0,0,0,0,1.79,6.26,6.26,0,0,0,1.68,1.81c.56.48,1.32,1,.87,1.69-.31.49-1,.36-1.58,0a4.16,4.16,0,0,1-1.73-1.91l-1.56.7A6,6,0,0,0,138.9,90.11Z"/><polygon class="cls-2" points="77.92 121.63 78.1 122.53 79.03 122.28 79.03 126.3 80.08 126.3 80.08 121.16 79.36 121.16 77.92 121.63"/><path class="cls-2" d="M84.53,123.67a1.32,1.32,0,0,0,.63-1.13c0-.79-.67-1.42-1.78-1.42s-1.78.64-1.78,1.42a1.31,1.31,0,0,0,.63,1.13,1.36,1.36,0,0,0-.82,1.23c0,.81.74,1.47,2,1.47s2-.65,2-1.47A1.36,1.36,0,0,0,84.53,123.67Zm-1.14-1.6a.63.63,0,1,1-.75.62C82.64,122.35,82.92,122.07,83.39,122.07Zm0,3.39c-.57,0-.91-.29-.91-.64s.34-.63.91-.63.91.29.91.63S84,125.46,83.39,125.46Z"/><path class="cls-2" d="M168.37,124.31v-3.16h-.91l-2.8,3.28.15.75h2.52v1.11h1v-1.11h.71v-.88Zm-1,0h-1.4l1.4-1.64Z"/><path class="cls-2" d="M161.66,121.14a1.79,1.79,0,0,0-2,1.71,1.63,1.63,0,0,0,1.68,1.72,2.53,2.53,0,0,0,1.16-.29c-.06.83-.5,1.11-1,1.15a1.42,1.42,0,0,1-1.12-.46l-.59.81a2.32,2.32,0,0,0,3.48-.39,4.14,4.14,0,0,0,.34-2.6A1.87,1.87,0,0,0,161.66,121.14Zm0,2.5a.79.79,0,1,1,.86-.79A.79.79,0,0,1,161.68,123.64Z"/><path class="cls-2" d="M123.5,71.9a51.6,51.6,0,1,0,51.6,51.6A51.7,51.7,0,0,0,123.5,71.9Zm0,100.94a49.34,49.34,0,1,1,49.34-49.34A49.43,49.43,0,0,1,123.5,172.84Z"/><path class="cls-2" d="M123.5,68.5a55,55,0,1,0,55,55A55.1,55.1,0,0,0,123.5,68.5Zm0,107.8a52.8,52.8,0,1,1,52.8-52.8A52.91,52.91,0,0,1,123.5,176.3Z"/><path class="cls-2" d="M148.85,98.08c-1.24-.23-2.51-.43-3.79-.62a33.73,33.73,0,0,0-43.07,0c-1.32.2-2.63.42-3.91.67-.26,1.31-.5,2.64-.72,4a33.82,33.82,0,0,0,21.77,55,39.14,39.14,0,0,0,4.4,1.43c1.37-.43,2.68-.89,3.93-1.38a33.81,33.81,0,0,0,22.19-55.08C149.4,100.68,149.13,99.35,148.85,98.08Zm-25.39-6.63A31.81,31.81,0,0,1,141.4,97a163.17,163.17,0,0,0-35.82,0A31.81,31.81,0,0,1,123.46,91.45Zm-32,32a31.81,31.81,0,0,1,5.35-17.69c-1.48,11.13-1.42,22.89,1.69,31.13a34.56,34.56,0,0,0,13.36,16.4A32.1,32.1,0,0,1,91.44,123.47Zm35.63,31.81a31.86,31.86,0,0,1-7.07,0c-9.29-3.91-16.55-10.55-19.73-19.33a40,40,0,0,1-1.91-11.1,90,90,0,0,1,2-23.56q.87-.91,1.82-1.75a133.44,133.44,0,0,1,42.5,0q1.06.94,2,2c2.23,9.92,2.84,23.18.95,31.73a26.62,26.62,0,0,1-2.74,6.7C141,147.05,134.26,152.22,127.07,155.29Zm28.4-31.81a32.1,32.1,0,0,1-20.24,29.77,33.49,33.49,0,0,0,13.16-16c3.2-7.63,3.3-20.32,1.84-31.23A31.81,31.81,0,0,1,155.47,123.47Z"/><path class="cls-2" d="M114.83,134.94l.36-.12a3,3,0,0,1,.67-.86,4,4,0,0,1,1.49-.76,3.6,3.6,0,0,0,.89-.38,4,4,0,0,0,.8-.85,5.08,5.08,0,0,1,.94-1l-3.74-4.5h-8.49Z"/><path class="cls-2" d="M145.65,133.62c.19-.67.35-1.34.48-2a47,47,0,0,0,.62-5.14h-7Z"/><path class="cls-2" d="M118.36,149.11a1.71,1.71,0,0,1-.49.07,1.61,1.61,0,0,1-1.63-1.59v-1.34a3,3,0,0,1-.66-.88,2.57,2.57,0,0,1-.23-.88l-15-18h-.06a34.35,34.35,0,0,0,1.63,9.07,25.88,25.88,0,0,0,3.56,6.52c4.31,5.93,10.77,9.87,18,12.34h0L119,148.91Z"/><path class="cls-2" d="M109.27,121.33l-4.39-1.85.12-.29a45.8,45.8,0,0,0,10.15,2v-1.63a3.58,3.58,0,0,0-2.12.87c-1.55-1.6-1.71-3.1-.9-4.58l6.89-2.37a17.84,17.84,0,0,0-4.53.64,4.08,4.08,0,0,0-2.16,1.29,3.45,3.45,0,0,1,.2-4.39l2.72-1V108l-.9.08c-.28,0-.09.38-.41.4l-1.63.09a.05.05,0,0,1,0-.1l1.58-.54c.16-.05,0-.21.22-.29l1.55-.55V110l2.23-.75a4.72,4.72,0,0,0,1.14,4.28,6.64,6.64,0,0,0,0,2.94,11,11,0,0,0,1.48,3.22,23.41,23.41,0,0,0-4.78-.15v1.75c2.57.22,5.17.3,7.86.28V119.7a3.41,3.41,0,0,0-2,1.19c-1.87-1.77-2.54-3.88-1.09-5.89l8.42-2.92a9,9,0,0,0,0,3.83,14.2,14.2,0,0,0,2.09,4l.06-13.23-.92.08c-.28,0-.09.38-.41.4l-1.62.09c-.08,0-.1-.08,0-.1l1.58-.54c.16-.05,0-.21.22-.29l1.55-.55.05,5.52,5.46-1.88c-.9,4.74,0,6.58,1.18,8.33L131.63,120v.73c2.1-.21,4-.5,5.8-.83a4.19,4.19,0,0,1-.71,1.55c-.49.7-1,1-1.17,1.5a1.65,1.65,0,0,0,.43,1.52h-3.25c-.86-.24-1.66-.53-2.43-.74a4.78,4.78,0,0,0-2.13-.2,8.12,8.12,0,0,1-3.29.52c-1.91-.08-3.66-.7-5.58-.74-.11.56-1.55.9-3,.79-1.25-.1-2.57-.67-3.54-.56a1.41,1.41,0,0,0-1.12.94h35.24a87.79,87.79,0,0,0-.06-10A84.49,84.49,0,0,0,145,101.07a120.6,120.6,0,0,0-21.47-1.79,119.4,119.4,0,0,0-21.41,1.79,87.69,87.69,0,0,0-1.89,23.41h11.3Zm11.46-16,3.05-1.06v-1.61l-.9.08c-.28,0-.09.38-.41.4l-1.62.09c-.08,0-.1-.08,0-.11l1.58-.54c.16-.05,0-.21.22-.28l1.55-.55v2.4l2.54-.85a3.65,3.65,0,0,0,.81,4,18.81,18.81,0,0,0-3.79.39,5.27,5.27,0,0,0-3.06,1.68C119.71,108.6,119.58,106.83,120.74,105.34Zm-.2,4.42,7-2.36a5.76,5.76,0,0,0,1.44,4.69c-2.32.08-6.46.3-8.15,2.44C119.44,112.89,119.41,110.77,120.53,109.76Zm-8.84,1.58a11.16,11.16,0,0,0-1.59,7.89,16.5,16.5,0,0,0-4.94-.45A16.74,16.74,0,0,1,111.69,111.33Z"/><path class="cls-2" d="M128.43,121c.91-.05,1.78-.12,2.62-.2v-.64a23.77,23.77,0,0,0-6.39-.63l-.46.06v2l2.74-.06Z"/><path class="cls-2" d="M127.51,147.63a.33.33,0,0,0,.16.1l1.42.47a.66.66,0,0,0,.83-.65l0-1.45a.39.39,0,0,0-.05-.24l0-.07a1.77,1.77,0,0,0,.88-1c.3-.81,0-1.7.37-2.71s1-1.35,1.22-2.14a1.92,1.92,0,0,0-.19-1.37l.05,0a.3.3,0,0,0,.19-.13l.89-1.23a.64.64,0,0,0-.26-1l-1.49-.49a.47.47,0,0,0-.25,0h-.08a1.92,1.92,0,0,0-.67-1.17c-.68-.57-1.55-.47-2.48-1.18s-1-1.42-1.68-1.81a2.45,2.45,0,0,0-1.34-.25v-.15a.44.44,0,0,0-.06-.25l-.89-1.23a.68.68,0,0,0-1.07,0l-.91,1.19a.39.39,0,0,0-.07.24l0,.29a1.74,1.74,0,0,0-1.29.24c-.76.46-1.06,1.35-1.94,2-.7.5-1.75.56-2.29,1.06a1.94,1.94,0,0,0-.62,1.05l-.12,0a.47.47,0,0,0-.25,0l-1.49.49a.64.64,0,0,0-.26,1l.89,1.23a.3.3,0,0,0,.19.13l.13,0a2.17,2.17,0,0,0-.18,1.36c.21.86,1,1.37,1.31,2.4.27.81.06,2,.34,2.56a2.06,2.06,0,0,0,.85.89l0,.09a.34.34,0,0,0,0,.18v1.5a.66.66,0,0,0,.88.58l1.4-.42a.39.39,0,0,0,.21-.13l.08-.08c1.37,1.21,2.26.1,4,.1,1.35,0,2.39,1.13,3.72-.13Zm1.46-.52-1.33-.43a2.26,2.26,0,0,0,0-1.43,2.59,2.59,0,0,0,1.37.45Zm2-10.68,1.33.47-.82,1.13a2.26,2.26,0,0,0-1.36-.43A2.56,2.56,0,0,0,131,136.44Zm-5.65-4.1c1.16.16,1.09,1,2.07,1.77s2.17.61,2.71,1.61c.44.83,0,2-1.71,2.2a1.16,1.16,0,0,0,0-1.46c-.4-.48-1.29-.51-1.8-.9s-.74-1.16-1.43-1.42a1.19,1.19,0,0,0-1.28.5C123.55,133,124.47,132.22,125.32,132.34Zm-.87,7.42a.86.86,0,1,1-.86-.86A.86.86,0,0,1,124.45,139.76Zm-.63-4.11a.92.92,0,0,1,1.14-1c.6.15.75.8,1.34,1.27s1.31.35,1.63.85a.94.94,0,0,1-.53,1.45l-2.66.86a1.31,1.31,0,0,0-.89-.65Zm-.48,2.82a1.32,1.32,0,0,0-.9.66l-2.69-.85a.94.94,0,0,1-.55-1.39c.33-.53,1-.47,1.62-.87s.71-1.07,1.28-1.25a.94.94,0,0,1,1.24.95Zm-3.68.28,2.63.85a1.45,1.45,0,0,0,0,.16,1.3,1.3,0,0,0,.36.9L121,142.95a1,1,0,0,1-1.52.07c-.4-.47-.13-1.07-.32-1.79s-.81-1-.81-1.6A1,1,0,0,1,119.66,138.75Zm1.72,4.44,1.63-2.25a1.28,1.28,0,0,0,.58.14,1.29,1.29,0,0,0,.56-.13l1.67,2.27a.94.94,0,0,1-.39,1.45c-.58.24-1.06-.21-1.81-.25s-1.2.45-1.76.26A1,1,0,0,1,121.38,143.18Zm3.17-2.54a1.29,1.29,0,0,0,.35-.89c0-.06,0-.11,0-.17l2.66-.86a.93.93,0,0,1,1.28.76c0,.62-.52,1-.79,1.66s0,1.32-.31,1.8a.92.92,0,0,1-1.53,0Zm-1-10.15.82,1.13a2.26,2.26,0,0,0-.83,1.17,2.64,2.64,0,0,0-.85-1.18ZM117,135.81c.51-1,1.31-.74,2.38-1.41s1.23-1.84,2.35-2c.92-.17,1.89.69,1.57,2.3-.51-.55-.93-.66-1.39-.48s-.88,1.07-1.4,1.44-1.36.34-1.83.92a1.2,1.2,0,0,0,.06,1.39C117.13,137.74,116.63,136.59,117,135.81Zm-2.22,1.08,1.33-.43a2.24,2.24,0,0,0,.85,1.15,2.57,2.57,0,0,0-1.38.44Zm4.72,9.82-1.35.4v-1.4a2.25,2.25,0,0,0,1.36-.46A2.59,2.59,0,0,0,119.51,146.72Zm-1.71-2c-.84-.81-.29-1.44-.59-2.67s-1.42-1.73-1.26-2.85c.13-.93,1.26-1.59,2.72-.78-.68.31-.9.67-.87,1.16s.74,1.17.93,1.78-.09,1.4.31,2a1.18,1.18,0,0,0,1.33.32C119.66,145.24,118.42,145.36,117.8,144.76Zm8.77,2c-1,.54-1.52-.17-2.78-.25s-2,.8-3,.31c-.84-.41-1.24-1.69,0-2.79.09.75.41,1.08.89,1.2s1.33-.39,2-.38,1.29.53,2,.34a1.17,1.17,0,0,0,.78-1.12C127.64,145.1,127.33,146.36,126.57,146.77Zm.25-3.06c.74.14,1.14,0,1.4-.42s.09-1.39.3-2,.9-1,.94-1.77a1.21,1.21,0,0,0-.86-1.09c1.44-.81,2.5-.14,2.65.7.2,1.15-.62,1.3-1.09,2.47s.13,2.25-.73,3.08C128.74,145.36,127.51,145.2,126.81,143.71Z"/><path class="cls-2" d="M149.65,137.72a40.82,40.82,0,0,1-3.13,6.06,30.63,30.63,0,0,0,5.76-31.05C152.89,122,152.25,131.52,149.65,137.72Z"/><path class="cls-2" d="M94.5,118.59c0-1.9.09-3.87.23-5.87a30.63,30.63,0,0,0,5.71,31,33.61,33.61,0,0,1-3.23-6.35C95.36,132.47,94.45,126.15,94.5,118.59Z"/><path class="cls-2" d="M135.06,95A30.59,30.59,0,0,0,112,95q5.49-.37,11.57-.37C127.48,94.61,131.33,94.75,135.06,95Z"/><path class="cls-2" d="M131.67,145.16a2.69,2.69,0,0,1-.73,1.08l0,1.35a1.64,1.64,0,0,1-1.62,1.61,1.54,1.54,0,0,1-.48-.08l-1.29-.43a2.68,2.68,0,0,1-.88.34l2.54,3a38.8,38.8,0,0,0,5.59-3.35l-3-3.66Z"/><path class="cls-2" d="M132,126.48h-8.56l3.79,4.53a4.12,4.12,0,0,1,.66.78l0,.06.5.6.19.16a3.29,3.29,0,0,0,1.09.5,3.92,3.92,0,0,1,1.43.7,2.8,2.8,0,0,1,.79,1l1.38.45a1.54,1.54,0,0,1,1,1,1.68,1.68,0,0,1-.25,1.5l-.53.73,5.46,6.53a27.06,27.06,0,0,0,4-5.33Z"/></g></g></svg>