<svg xmlns="http://www.w3.org/2000/svg" viewBox="0 0 61 38"><defs><style>.cls-1{fill:none;}.cls-2{fill:#ddd;}</style></defs><title>cloudy</title><g id="Layer_2" data-name="Layer 2"><g id="Layer_1-2" data-name="Layer 1"><rect class="cls-1" width="61" height="38"/><path class="cls-2" d="M48.12,13.05a11.94,11.94,0,0,0-1.51.1,16.66,16.66,0,0,0-32.18,0,12,12,0,0,0-1.51-.1,12.14,12.14,0,1,0,0,24.27H48.12a12.14,12.14,0,1,0,0-24.27Zm0,18.27H12.92a6.32,6.32,0,0,1-6.47-6.27,6.39,6.39,0,0,1,6.47-6.36A6.54,6.54,0,0,1,18.51,22l5-2.86a12.15,12.15,0,0,0-3.64-3.91A10.91,10.91,0,0,1,30.52,6.52a10.63,10.63,0,0,1,8.92,16.81h6.51a12.26,12.26,0,0,0,1.15-4.61,6.3,6.3,0,0,1,1,0,6.31,6.31,0,1,1,0,12.62Z"/></g></g></svg>