<svg xmlns="http://www.w3.org/2000/svg" viewBox="0 0 61 57"><defs><style>.cls-1{fill:none;}.cls-2{fill:#69a2d5;}.cls-3{fill:#636363;}</style></defs><title>drizzle</title><g id="Layer_2" data-name="Layer 2"><g id="Layer_1-2" data-name="Layer 1"><rect class="cls-1" width="61" height="57"/><circle class="cls-2" cx="17.62" cy="41.7" r="1.45"/><circle class="cls-2" cx="24.05" cy="41.7" r="1.45"/><circle class="cls-2" cx="30.49" cy="41.7" r="1.45"/><circle class="cls-2" cx="36.92" cy="41.7" r="1.45"/><circle class="cls-2" cx="43.35" cy="41.7" r="1.45"/><circle class="cls-2" cx="17.62" cy="48.14" r="1.45"/><circle class="cls-2" cx="24.05" cy="48.14" r="1.45"/><circle class="cls-2" cx="30.49" cy="48.14" r="1.45"/><circle class="cls-2" cx="36.92" cy="48.14" r="1.45"/><circle class="cls-2" cx="43.35" cy="48.14" r="1.45"/><circle class="cls-2" cx="24.05" cy="54.58" r="1.45"/><circle class="cls-2" cx="30.49" cy="54.58" r="1.45"/><circle class="cls-2" cx="36.92" cy="54.58" r="1.45"/><path class="cls-3" d="M48.09,12.38a12.32,12.32,0,0,0-1.51.1,16.65,16.65,0,0,0-32.18,0,11.68,11.68,0,0,0-1.51-.1,12.19,12.19,0,1,0,0,24.38H48.09a12.19,12.19,0,1,0,0-24.38Zm0,18.38H12.88a6.35,6.35,0,1,1,0-12.7,6.53,6.53,0,0,1,5.6,3.26l5-2.87a12.19,12.19,0,0,0-3.64-3.92,10.9,10.9,0,0,1,21.57,2.08,10.84,10.84,0,0,1-2,6.14h6.51a12.51,12.51,0,0,0,1.15-4.66,6.38,6.38,0,1,1,1,12.66Z"/></g></g></svg>