<svg xmlns="http://www.w3.org/2000/svg" viewBox="0 0 61 23"><defs><style>.cls-1{fill:none;}.cls-2{fill:#fff;}</style></defs><title>fog</title><g id="Layer_2" data-name="Layer 2"><g id="Layer_1-2" data-name="Layer 1"><rect class="cls-1" width="61" height="23"/><path class="cls-2" d="M1.07,1h14.8V4.89H5.7V9.75h8.82v3.6H5.7V22H1.07Z"/><path class="cls-2" d="M27.83.49c6.51,0,10.35,4.86,10.35,11.11,0,6.07-3.83,10.94-10.35,10.94S17.49,17.68,17.49,11.61C17.49,5.36,21.32.49,27.83.49Zm0,18.16c4.16,0,5.72-3.54,5.72-7,0-3.69-1.56-7.22-5.72-7.22s-5.72,3.54-5.72,7.22C22.12,15.11,23.68,18.65,27.83,18.65Z"/><path class="cls-2" d="M56.4,19.65a7.13,7.13,0,0,1-5.78,2.89c-6.51,0-10.35-4.86-10.35-10.94C40.28,5.36,44.11.49,50.62.49c4.3,0,8.37,2.65,8.87,7.43H55.08a4.31,4.31,0,0,0-4.45-3.54c-4.16,0-5.72,3.54-5.72,7.22,0,3.51,1.56,7,5.72,7,3,0,4.75-1.62,5-4.54H51V10.66h8.84V22H56.87Z"/></g></g></svg>