<svg xmlns="http://www.w3.org/2000/svg" viewBox="0 0 61 54"><defs><style>.cls-1{fill:none;}.cls-2{fill:#636363;}.cls-3{fill:#c9c9c9;}</style></defs><title>hail</title><g id="Layer_2" data-name="Layer 2"><g id="Layer_1-2" data-name="Layer 1"><rect class="cls-1" width="61" height="54"/><path class="cls-2" d="M48.17,12.85a12.31,12.31,0,0,0-1.51.1,16.65,16.65,0,0,0-32.18,0,11.9,11.9,0,0,0-1.51-.1,12.45,12.45,0,0,0,0,24.9h7.46v-6H13a6.55,6.55,0,0,1,0-13.1,6.47,6.47,0,0,1,5.6,3.2l5-2.9A12.26,12.26,0,0,0,19.89,15,10.92,10.92,0,0,1,30.57,6.32a11,11,0,0,1,10.9,11,11.65,11.65,0,0,1-2,6.4H46a22.35,22.35,0,0,0,1.15-4.92,6.45,6.45,0,0,1,1-.16,6.54,6.54,0,0,1,0,13.08H40.43v6h7.75a12.45,12.45,0,0,0,0-24.9Z"/><line class="cls-3" x1="26.67" y1="32.96" x2="34.45" y2="40.74"/><line class="cls-3" x1="29.14" y1="42.17" x2="31.98" y2="31.54"/><line class="cls-3" x1="35.87" y1="35.43" x2="25.25" y2="38.27"/><circle class="cls-3" cx="30.56" cy="36.85" r="5.5"/><line class="cls-3" x1="13.81" y1="43.52" x2="21.59" y2="51.3"/><line class="cls-3" x1="16.28" y1="52.72" x2="19.13" y2="42.1"/><line class="cls-3" x1="23.02" y1="45.98" x2="12.39" y2="48.83"/><circle class="cls-3" cx="17.7" cy="47.41" r="5.5"/></g></g></svg>