<svg xmlns="http://www.w3.org/2000/svg" viewBox="0 0 80.25 61.74"><defs><style>.cls-1{fill:none;}.cls-2{fill:#b3b3b3;}.cls-3{fill:#636363;}.cls-4{fill:#c9c9c9;}</style></defs><title>hailshowernight</title><g id="Layer_2" data-name="Layer 2"><g id="Layer_1-2" data-name="Layer 1"><rect class="cls-1" width="80.07" height="61.74"/><path class="cls-2" d="M78,28.81A17.67,17.67,0,0,1,63.89.41,17.69,17.69,0,0,0,48.44,17.87,15,15,0,0,1,62.58,35.25a17.77,17.77,0,0,0,17.67-6.59A17.61,17.61,0,0,1,78,28.81Z"/><path class="cls-3" d="M47.67,20.71a11.91,11.91,0,0,0-1.51.1,16.66,16.66,0,0,0-32.18,0,12.09,12.09,0,0,0-1.51-.1,12.39,12.39,0,0,0,0,24.79h8v-6h-8a6.51,6.51,0,1,1,5.6-9.81l5-2.89a12.23,12.23,0,0,0-3.64-3.92A10.9,10.9,0,0,1,41,25.16a11.48,11.48,0,0,1-2,6.34H45.5a21.93,21.93,0,0,0,1.15-4.86,6.27,6.27,0,0,1,1-.14,6.5,6.5,0,0,1,0,13H40.5v6h7.17a12.39,12.39,0,0,0,0-24.79Z"/><line class="cls-4" x1="26.12" y1="40.71" x2="33.9" y2="48.48"/><line class="cls-4" x1="28.59" y1="49.91" x2="31.43" y2="39.28"/><line class="cls-4" x1="35.32" y1="43.17" x2="24.7" y2="46.02"/><circle class="cls-4" cx="30.01" cy="44.59" r="5.5"/><line class="cls-4" x1="13.26" y1="51.26" x2="21.04" y2="59.04"/><line class="cls-4" x1="15.73" y1="60.46" x2="18.58" y2="49.84"/><line class="cls-4" x1="22.47" y1="53.73" x2="11.84" y2="56.58"/><circle class="cls-4" cx="17.15" cy="55.15" r="5.5"/></g></g></svg>