<svg xmlns="http://www.w3.org/2000/svg" viewBox="0 0 80.58 65.74"><defs><style>.cls-1{fill:none;}.cls-2{fill:#f7d34c;}.cls-3{fill:#636363;}.cls-4{fill:#c9c9c9;}</style></defs><title>hailshowerday</title><g id="Layer_2" data-name="Layer 2"><g id="Layer_1-2" data-name="Layer 1"><rect class="cls-1" width="80.58" height="65.74"/><polygon class="cls-2" points="50.08 12.5 45.08 12.5 45.08 0.5 50.08 0.5 50.08 12.5 50.08 12.5"/><polygon class="cls-2" points="50.08 65.5 45.08 65.5 45.08 53.5 50.08 53.5 50.08 65.5 50.08 65.5"/><polygon class="cls-2" points="68.08 35.5 68.08 30.5 80.08 30.5 80.08 35.5 68.08 35.5 68.08 35.5"/><polygon class="cls-2" points="61.5 62.63 55.51 52.27 60.49 49.39 66.48 59.76 61.5 62.63 61.5 62.63"/><polygon class="cls-2" points="66.98 25.19 64.1 20.21 74.47 14.23 77.35 19.2 66.98 25.19 66.98 25.19"/><polygon class="cls-2" points="74.47 51.77 64.1 45.78 66.97 40.8 77.35 46.79 74.47 51.77 74.47 51.77"/><polygon class="cls-2" points="60.49 16.6 55.51 13.73 61.5 3.36 66.48 6.23 60.49 16.6 60.49 16.6"/><path class="cls-3" d="M47.7,20.78a12.21,12.21,0,0,0-1.51.1,16.65,16.65,0,0,0-32.18,0,12,12,0,0,0-1.51-.1,12.36,12.36,0,0,0,0,24.72h7.59v-6H12.49a6.48,6.48,0,1,1,5.6-9.74l5-2.89A12.25,12.25,0,0,0,19.42,23,10.9,10.9,0,0,1,41,25.19a11.36,11.36,0,0,1-2,6.31h6.51a21.72,21.72,0,0,0,1.15-4.83,6.46,6.46,0,1,1,1,12.83H40.08v6H47.7a12.36,12.36,0,0,0,0-24.72Z"/><line class="cls-4" x1="26.19" y1="40.9" x2="33.97" y2="48.67"/><line class="cls-4" x1="28.66" y1="50.1" x2="31.51" y2="39.47"/><line class="cls-4" x1="35.4" y1="43.36" x2="24.77" y2="46.21"/><circle class="cls-4" cx="30.08" cy="44.78" r="5.5"/><line class="cls-4" x1="13.34" y1="51.45" x2="21.12" y2="59.23"/><line class="cls-4" x1="15.81" y1="60.65" x2="18.65" y2="50.03"/><line class="cls-4" x1="22.54" y1="53.91" x2="11.91" y2="56.76"/><circle class="cls-4" cx="17.23" cy="55.34" r="5.5"/></g></g></svg>