<svg xmlns="http://www.w3.org/2000/svg" viewBox="0 0 81.11 65.6"><defs><style>.cls-1{fill:none;}.cls-2{fill:#7ab4df;}.cls-3{fill:#b3b3b3;}.cls-4{fill:#636363;}</style></defs><title>heavyrainshowernight</title><g id="Layer_2" data-name="Layer 2"><g id="Layer_1-2" data-name="Layer 1"><rect class="cls-1" y="0.05" width="81.11" height="65.55"/><path class="cls-2" d="M19.62,59.69c0-.07,0-.14,0-.21l1-11.5L10.7,53.55h0a6.18,6.18,0,0,0-3,5.33,6,6,0,0,0,6,6c3.08,0,5.94-2.24,5.94-5.21h0Z"/><path class="cls-2" d="M35.82,45.56c0-.07.12-.14.13-.21L37,34l-9.9,5.72h0a6,6,0,0,0-3,5.18,5.8,5.8,0,0,0,5.78,6,5.55,5.55,0,0,0,5.74-5.29h0Z"/><path class="cls-3" d="M78.48,28.4A17.66,17.66,0,0,1,64.39,0,17.69,17.69,0,0,0,48.94,17.46a15.09,15.09,0,0,1,14.33,15,14.84,14.84,0,0,1-.19,2.35,17.76,17.76,0,0,0,17.67-6.59A17.45,17.45,0,0,1,78.48,28.4Z"/><path class="cls-4" d="M48.17,20.31a11.83,11.83,0,0,0-1.51.1,16.66,16.66,0,0,0-32.18,0A12.13,12.13,0,1,0,13,44.55h7.64v-6H13A6.3,6.3,0,0,1,6.5,32.3,6.38,6.38,0,0,1,13,25.94a6.54,6.54,0,0,1,5.6,3.27l5-2.85a12.14,12.14,0,0,0-3.64-3.91,10.91,10.91,0,0,1,10.68-8.68,10.75,10.75,0,0,1,10.9,10.7c0,2.25-.68,5.07-2,6.07H46A12.19,12.19,0,0,0,47.15,26a6.41,6.41,0,0,1,1,0,6.3,6.3,0,1,1,0,12.59H40.61v6h7.57a12.12,12.12,0,1,0,0-24.24Z"/></g></g></svg>