<svg xmlns="http://www.w3.org/2000/svg" viewBox="0 0 80.04 62.12"><defs><style>.cls-1{fill:none;}.cls-2{fill:#b3b3b3;}.cls-3{fill:#636363;}.cls-4{fill:#c9c9c9;}</style></defs><title>heavysnowshowernight</title><g id="Layer_2" data-name="Layer 2"><g id="Layer_1-2" data-name="Layer 1"><rect class="cls-1" width="80" height="62"/><path class="cls-2" d="M77.77,29A17.66,17.66,0,0,1,63.69.64,17.69,17.69,0,0,0,48.23,18.1,15,15,0,0,1,62.37,35.48,17.77,17.77,0,0,0,80,28.89,17.67,17.67,0,0,1,77.77,29Z"/><path class="cls-3" d="M47.47,20.95A12.12,12.12,0,0,0,46,21a16.66,16.66,0,0,0-32.18,0,12.17,12.17,0,1,0-1.51,24.24H19.5v-6H12.26a6.34,6.34,0,1,1,0-12.67,6.53,6.53,0,0,1,5.6,3.26l5-2.86a12.16,12.16,0,0,0-3.64-3.91,10.91,10.91,0,0,1,10.68-8.68,10.68,10.68,0,0,1,8.92,16.86h6.51a12.42,12.42,0,0,0,1.15-4.64,6.29,6.29,0,0,1,1,0,6.33,6.33,0,1,1,0,12.66h-8v6h8a12.17,12.17,0,1,0,0-24.33Z"/><polygon class="cls-4" points="33.56 50.93 24.52 41.9 26.33 40.1 35.36 49.13 33.56 50.93 33.56 50.93"/><polygon class="cls-4" points="29.52 52.02 27.06 51.35 30.36 39.02 32.83 39.67 29.52 52.02 29.52 52.02"/><polygon class="cls-4" points="24.11 48.4 23.44 45.93 35.78 42.63 36.44 45.1 24.11 48.4 24.11 48.4"/><polygon class="cls-4" points="20.46 61.04 11.43 52.01 13.24 50.21 22.27 59.24 20.46 61.04 20.46 61.04"/><polygon class="cls-4" points="16.43 62.12 13.96 61.46 17.27 49.12 19.74 49.78 16.43 62.12 16.43 62.12"/><polygon class="cls-4" points="11.01 58.51 10.35 56.04 22.69 52.74 23.35 55.21 11.01 58.51 11.01 58.51"/></g></g></svg>