<svg xmlns="http://www.w3.org/2000/svg" viewBox="0 0 61 57.09"><defs><style>.cls-1{fill:none;}.cls-2{fill:#636363;}.cls-3{fill:#7ab4df;}</style></defs><title>heavyrain</title><g id="Layer_2" data-name="Layer 2"><g id="Layer_1-2" data-name="Layer 1"><rect class="cls-1" y="0.01" width="61" height="57"/><path class="cls-2" d="M48.17,12.28a12.21,12.21,0,0,0-1.51.1,16.65,16.65,0,0,0-32.18,0,11.88,11.88,0,0,0-1.51-.1,12,12,0,1,0,0,24.06h8v-5H13A6.64,6.64,0,0,1,6.5,24.69,6.55,6.55,0,0,1,13,18.13a6.45,6.45,0,0,1,5.6,3.18l5-2.91a12.26,12.26,0,0,0-3.64-3.94A10.92,10.92,0,0,1,30.57,5.75a11.1,11.1,0,0,1,10.9,11.12,11.9,11.9,0,0,1-2,6.47H46a22.94,22.94,0,0,0,1.15-5,6.72,6.72,0,0,1,1-.2,6.6,6.6,0,0,1,0,13.2H40.93v5h7.25a12,12,0,1,0,0-24.06Z"/><path class="cls-3" d="M19.78,51.76c0-.07-.06-.14-.06-.21l1.06-11.37L10.93,45.9h0A5.7,5.7,0,0,0,7.8,51.1a6.07,6.07,0,0,0,6.08,6c3.07,0,5-2.32,6-5.3h0Z"/><path class="cls-3" d="M36,37.6c0-.07,0-.14,0-.21l1-11.58-9.92,5.52h0a6.28,6.28,0,0,0-3,5.4A6,6,0,0,0,30,42.83c3.07,0,5.89-2.27,5.89-5.25v0Z"/></g></g></svg>