<svg xmlns="http://www.w3.org/2000/svg" viewBox="0 0 80.82 67"><defs><style>.cls-1{fill:none;}.cls-2{fill:#f7d34c;}.cls-3{fill:#636363;}.cls-4{fill:#c9c9c9;}</style></defs><title>heavysnowshowerday</title><g id="Layer_2" data-name="Layer 2"><g id="Layer_1-2" data-name="Layer 1"><rect class="cls-1" width="80.82" height="67"/><polygon class="cls-2" points="50.5 12.64 45.5 12.64 45.5 0.64 50.5 0.64 50.5 12.64 50.5 12.64"/><polygon class="cls-2" points="50.5 65.64 45.5 65.64 45.5 53.64 50.5 53.64 50.5 65.64 50.5 65.64"/><polygon class="cls-2" points="68.5 36.64 68.5 30.64 80.5 30.64 80.5 36.64 68.5 36.64 68.5 36.64"/><polygon class="cls-2" points="61.72 63.1 55.73 52.73 60.71 49.86 66.7 60.22 61.72 63.1 61.72 63.1"/><polygon class="cls-2" points="67.2 25.65 64.33 20.68 74.7 14.69 77.57 19.67 67.2 25.65 67.2 25.65"/><polygon class="cls-2" points="74.7 52.23 64.33 46.24 67.2 41.27 77.57 47.26 74.7 52.23 74.7 52.23"/><polygon class="cls-2" points="60.71 17.07 55.73 14.19 61.72 3.82 66.7 6.7 60.71 17.07 60.71 17.07"/><path class="cls-3" d="M47.92,21.25a12.3,12.3,0,0,0-1.51.1,16.65,16.65,0,0,0-32.18,0,11.88,11.88,0,0,0-1.51-.1,12.2,12.2,0,1,0,0,24.39H20.5v-6H12.71a6.36,6.36,0,1,1,0-12.72,6.53,6.53,0,0,1,5.6,3.26l5-2.87a12.2,12.2,0,0,0-3.64-3.92,10.88,10.88,0,1,1,19.6,8.23h6.51A12.53,12.53,0,0,0,46.9,27a6.46,6.46,0,0,1,1,0,6.35,6.35,0,1,1,0,12.7H40.5v6h7.42a12.2,12.2,0,1,0,0-24.39Z"/><polygon class="cls-4" points="33.99 51.34 24.96 42.31 26.77 40.5 35.8 49.53 33.99 51.34 33.99 51.34"/><polygon class="cls-4" points="29.96 52.42 27.49 51.76 30.8 39.42 33.27 40.08 29.96 52.42 29.96 52.42"/><polygon class="cls-4" points="24.54 48.81 23.88 46.34 36.22 43.03 36.88 45.5 24.54 48.81 24.54 48.81"/><polygon class="cls-4" points="20.9 61.45 11.87 52.42 13.67 50.61 22.7 59.64 20.9 61.45 20.9 61.45"/><polygon class="cls-4" points="16.87 62.53 14.4 61.87 17.7 49.53 20.17 50.19 16.87 62.53 16.87 62.53"/><polygon class="cls-4" points="11.45 58.92 10.79 56.45 23.12 53.14 23.79 55.61 11.45 58.92 11.45 58.92"/><polygon class="cls-4" points="33.99 51.34 24.96 42.31 26.77 40.5 35.8 49.53 33.99 51.34 33.99 51.34"/><polygon class="cls-4" points="29.96 52.42 27.49 51.76 30.8 39.42 33.27 40.08 29.96 52.42 29.96 52.42"/><polygon class="cls-4" points="24.54 48.81 23.88 46.34 36.22 43.03 36.88 45.5 24.54 48.81 24.54 48.81"/></g></g></svg>