<svg xmlns="http://www.w3.org/2000/svg" viewBox="0 0 81.15 67.17"><defs><style>.cls-1{fill:none;}.cls-2{fill:#f7d34c;}.cls-3{fill:#636363;}.cls-4{fill:#7ab4df;}</style></defs><title>heavyrainshowerday</title><g id="Layer_2" data-name="Layer 2"><g id="Layer_1-2" data-name="Layer 1"><rect class="cls-1" width="81.15" height="67.17"/><polygon class="cls-2" points="50.65 11.5 45.65 11.5 45.65 0.5 50.65 0.5 50.65 11.5 50.65 11.5"/><polygon class="cls-2" points="50.65 65.5 45.65 65.5 45.65 53.5 50.65 53.5 50.65 65.5 50.65 65.5"/><polygon class="cls-2" points="68.65 35.5 68.65 29.5 80.65 29.5 80.65 35.5 68.65 35.5 68.65 35.5"/><polygon class="cls-2" points="61.92 62.22 55.94 51.86 60.91 48.98 66.9 59.35 61.92 62.22 61.92 62.22"/><polygon class="cls-2" points="67.4 24.78 64.53 19.8 74.9 13.82 77.77 18.79 67.4 24.78 67.4 24.78"/><polygon class="cls-2" points="74.9 51.35 64.53 45.37 67.4 40.4 77.77 46.38 74.9 51.35 74.9 51.35"/><polygon class="cls-2" points="60.91 16.19 55.94 13.32 61.92 2.95 66.9 5.82 60.91 16.19 60.91 16.19"/><path class="cls-3" d="M48.13,20.38a12.39,12.39,0,0,0-1.51.1,16.65,16.65,0,0,0-32.19,0,11.78,11.78,0,0,0-1.51-.1,12.06,12.06,0,1,0,0,24.12h7.74v-5H12.92a6.67,6.67,0,0,1-6.47-6.69,6.57,6.57,0,0,1,6.47-6.58,6.45,6.45,0,0,1,5.6,3.17l5-2.91a12.27,12.27,0,0,0-3.64-3.94,10.92,10.92,0,0,1,10.68-8.71,10.7,10.7,0,0,1,10.9,10.65c0,2.25-.68,5-2,6h6.51A11.83,11.83,0,0,0,47.1,26a6.58,6.58,0,0,1,1,0,6.76,6.76,0,0,1,0,13.5H40.65v5h7.47a12.06,12.06,0,1,0,0-24.12Z"/><path class="cls-4" d="M19.58,59.85c0-.07,0-.14,0-.21l1-11.37L10.65,54h0a6,6,0,1,0,8.92,5.88h0Z"/><path class="cls-4" d="M36,45.69l0-.21,1-11.54L27.06,39.5h0a6.23,6.23,0,0,0-3,5.37,6.06,6.06,0,0,0,6,6.07A6,6,0,0,0,36,45.68v0Z"/></g></g></svg>