<svg xmlns="http://www.w3.org/2000/svg" viewBox="0 0 62 55.02"><defs><style>.cls-1{fill:none;}.cls-2{fill:#636363;}.cls-3{fill:#c9c9c9;}</style></defs><title>heavysnow</title><g id="Layer_2" data-name="Layer 2"><g id="Layer_1-2" data-name="Layer 1"><rect class="cls-1" width="62" height="55"/><path class="cls-2" d="M49.08,13.74a12.41,12.41,0,0,0-1.51.1,16.65,16.65,0,0,0-32.18,0,11.79,11.79,0,0,0-1.51-.1,12.2,12.2,0,1,0,0,24.4h7.56v-6H13.87a6.36,6.36,0,1,1,0-12.72,6.53,6.53,0,0,1,5.6,3.26l5-2.87A12.18,12.18,0,0,0,20.8,15.9,10.9,10.9,0,0,1,42.37,18a10.87,10.87,0,0,1-2,6.15H46.9a12.59,12.59,0,0,0,1.15-4.67,6.5,6.5,0,0,1,1,0,6.35,6.35,0,1,1,0,12.7H41.43v6h7.65a12.2,12.2,0,1,0,0-24.4Z"/><polygon class="cls-3" points="35.15 43.83 26.11 34.8 27.92 33 36.95 42.03 35.15 43.83 35.15 43.83"/><polygon class="cls-3" points="31.11 44.92 28.64 44.25 31.95 31.92 34.42 32.58 31.11 44.92 31.11 44.92"/><polygon class="cls-3" points="25.69 41.3 25.03 38.83 37.37 35.53 38.03 38 25.69 41.3 25.69 41.3"/><polygon class="cls-3" points="22.05 53.94 13.02 44.91 14.83 43.11 23.86 52.14 22.05 53.94 22.05 53.94"/><polygon class="cls-3" points="18.02 55.02 15.55 54.36 18.86 42.02 21.33 42.69 18.02 55.02 18.02 55.02"/><polygon class="cls-3" points="12.6 51.41 11.94 48.94 24.28 45.64 24.94 48.11 12.6 51.41 12.6 51.41"/></g></g></svg>