<svg xmlns="http://www.w3.org/2000/svg" viewBox="0 0 81 51.75"><defs><style>.cls-1{fill:none;}.cls-2{fill:#b3b3b3;}.cls-3{fill:#636363;}.cls-4{fill:#c9c9c9;}</style></defs><title>lightsnowshowernight</title><g id="Layer_2" data-name="Layer 2"><g id="Layer_1-2" data-name="Layer 1"><rect class="cls-1" width="81" height="51.74"/><path class="cls-2" d="M78.41,28.66A17.66,17.66,0,0,1,64.32.26,17.69,17.69,0,0,0,48.87,17.72,15,15,0,0,1,63,35.1a17.77,17.77,0,0,0,17.67-6.59A17.5,17.5,0,0,1,78.41,28.66Z"/><path class="cls-3" d="M48.1,20.62a12.3,12.3,0,0,0-1.51.1,16.65,16.65,0,0,0-32.18,0,11.86,11.86,0,0,0-1.51-.1,12.44,12.44,0,0,0,0,24.88h7.46v-6H12.89a6.54,6.54,0,0,1,0-13.08,6.47,6.47,0,0,1,5.6,3.2l5-2.9a12.25,12.25,0,0,0-3.64-3.93,10.9,10.9,0,0,1,21.57,2.32,11.62,11.62,0,0,1-2,6.39h6.51a22.23,22.23,0,0,0,1.15-4.91,6.41,6.41,0,0,1,1-.15,6.53,6.53,0,0,1,0,13.07H40.35v6H48.1a12.44,12.44,0,0,0,0-24.88Z"/><polygon class="cls-4" points="34.04 50.67 25.01 41.63 26.81 39.83 35.85 48.86 34.04 50.67 34.04 50.67"/><polygon class="cls-4" points="30.01 51.75 27.54 51.09 30.85 38.75 33.31 39.41 30.01 51.75 30.01 51.75"/><polygon class="cls-4" points="24.59 48.13 23.93 45.67 36.27 42.36 36.93 44.83 24.59 48.13 24.59 48.13"/></g></g></svg>