<svg xmlns="http://www.w3.org/2000/svg" viewBox="0 0 81.08 52"><defs><style>.cls-1{fill:none;}.cls-2{fill:#7ab4df;}.cls-3{fill:#b3b3b3;}.cls-4{fill:#636363;}</style></defs><title>lightrainshowernight</title><g id="Layer_2" data-name="Layer 2"><g id="Layer_1-2" data-name="Layer 1"><rect class="cls-1" width="81.08" height="52"/><path class="cls-2" d="M36.06,46.2c0-.07,0-.14,0-.21l1-11.35-9.93,5.72h0a6,6,0,1,0,8.92,5.87h0Z"/><path class="cls-3" d="M78.5,29A17.66,17.66,0,0,1,64.42.64,17.69,17.69,0,0,0,49,18.1a15.09,15.09,0,0,1,14.33,15,14.86,14.86,0,0,1-.19,2.35,17.77,17.77,0,0,0,17.67-6.59A17.53,17.53,0,0,1,78.5,29Z"/><path class="cls-4" d="M48.2,20.95a12,12,0,0,0-1.51.1A16.66,16.66,0,0,0,14.5,21,12.22,12.22,0,1,0,13,45.39h7.59v-6H13a6.38,6.38,0,1,1,0-12.76,6.52,6.52,0,0,1,5.6,3.24l5-2.86a12.19,12.19,0,0,0-3.64-3.91,10.88,10.88,0,1,1,19.6,8.29H46a12.74,12.74,0,0,0,1.15-4.69,6.25,6.25,0,0,1,1,0,6.37,6.37,0,1,1,0,12.74H40.58v6H48.2a12.22,12.22,0,0,0,0-24.44Z"/></g></g></svg>