<svg xmlns="http://www.w3.org/2000/svg" viewBox="0 0 80.57 66.36"><defs><style>.cls-1{fill:none;}.cls-2{fill:#f7d34c;}.cls-3{fill:#636363;}.cls-4{fill:#7ab4df;}</style></defs><title>lightrainshowerday</title><g id="Layer_2" data-name="Layer 2"><g id="Layer_1-2" data-name="Layer 1"><rect class="cls-1" width="80.57" height="66.36"/><polygon class="cls-2" points="50.5 12.5 45.5 12.5 45.5 0.5 50.5 0.5 50.5 12.5 50.5 12.5"/><polygon class="cls-2" points="50.5 65.5 45.5 65.5 45.5 53.5 50.5 53.5 50.5 65.5 50.5 65.5"/><polygon class="cls-2" points="68.5 35.5 68.5 29.5 80.5 29.5 80.5 35.5 68.5 35.5 68.5 35.5"/><polygon class="cls-2" points="61.69 62.38 55.7 52.01 60.68 49.14 66.67 59.5 61.69 62.38 61.69 62.38"/><polygon class="cls-2" points="67.17 24.93 64.29 19.96 74.66 13.97 77.54 18.95 67.17 24.93 67.17 24.93"/><polygon class="cls-2" points="74.66 51.51 64.29 45.52 67.17 40.55 77.54 46.53 74.66 51.51 74.66 51.51"/><polygon class="cls-2" points="60.68 16.34 55.7 13.47 61.69 3.1 66.67 5.98 60.68 16.34 60.68 16.34"/><path class="cls-3" d="M47.89,20.53a12.12,12.12,0,0,0-1.51.1,16.65,16.65,0,0,0-32.18,0,11.68,11.68,0,0,0-1.51-.1,12,12,0,1,0,0,24H20.5v-5H12.68a6.6,6.6,0,0,1-6.47-6.61,6.54,6.54,0,0,1,6.47-6.54,6.46,6.46,0,0,1,5.6,3.19l5-2.9a12.27,12.27,0,0,0-3.64-3.93A10.92,10.92,0,0,1,30.28,14a11.06,11.06,0,0,1,10.9,11.07,11.76,11.76,0,0,1-2,6.43h6.51a22.51,22.51,0,0,0,1.15-5,6.6,6.6,0,0,1,1-.17,6.57,6.57,0,0,1,0,13.13H40.5v5h7.39a12,12,0,1,0,0-24Z"/><path class="cls-4" d="M35.5,45.85c0-.07.14-.14.15-.21l1-11.37L26.8,40h0a6,6,0,0,0-3,5.2,5.83,5.83,0,0,0,6,5.8,6.14,6.14,0,0,0,6-5.49H35.5Z"/></g></g></svg>