<svg xmlns="http://www.w3.org/2000/svg" viewBox="0 0 63 45"><defs><style>.cls-1{fill:none;}.cls-2{fill:#636363;}.cls-3{fill:#7ab4df;}</style></defs><title>lightrain</title><g id="Layer_2" data-name="Layer 2"><g id="Layer_1-2" data-name="Layer 1"><rect class="cls-1" width="63" height="45"/><path class="cls-2" d="M49,12.86a12.21,12.21,0,0,0-1.51.1,16.65,16.65,0,0,0-32.18,0,11.86,11.86,0,0,0-1.51-.1,12,12,0,1,0,0,24h7.63v-5H13.8a6.63,6.63,0,0,1-6.47-6.65A6.55,6.55,0,0,1,13.8,18.7a6.45,6.45,0,0,1,5.6,3.18l5-2.91A12.26,12.26,0,0,0,20.73,15,10.92,10.92,0,0,1,31.4,6.32,11.09,11.09,0,0,1,42.3,17.43a11.88,11.88,0,0,1-2,6.47h6.51a22.9,22.9,0,0,0,1.15-5,6.66,6.66,0,0,1,1-.19A6.59,6.59,0,0,1,49,31.9H41.43v5H49a12,12,0,1,0,0-24Z"/><path class="cls-3" d="M36.87,38.17c0-.07,0-.14,0-.21l1-11.37-9.93,5.73h0a6,6,0,1,0,8.92,5.88h0Z"/></g></g></svg>