<svg xmlns="http://www.w3.org/2000/svg" viewBox="0 0 61 45"><defs><style>.cls-1{fill:none;}.cls-2{fill:#636363;}.cls-3{fill:#c9c9c9;}</style></defs><title>lightsnow</title><g id="Layer_2" data-name="Layer 2"><g id="Layer_1-2" data-name="Layer 1"><rect class="cls-1" width="61" height="45"/><path class="cls-2" d="M48.41,12.83a12.24,12.24,0,0,0-1.51.1,16.65,16.65,0,0,0-32.18,0,11.81,11.81,0,0,0-1.51-.1,12,12,0,1,0,0,23.93h7.73v-5H13.2a6.56,6.56,0,0,1,0-13.12,6.47,6.47,0,0,1,5.6,3.2l5-2.9A12.23,12.23,0,0,0,20.12,15,10.92,10.92,0,0,1,30.8,6.29,11,11,0,0,1,41.7,17.35a11.7,11.7,0,0,1-2,6.41h6.51a22.46,22.46,0,0,0,1.15-4.94,6.63,6.63,0,0,1,1-.16,6.55,6.55,0,0,1,0,13.1H40.93v5h7.48a12,12,0,1,0,0-23.93Z"/><polygon class="cls-3" points="34.47 42.92 25.44 33.89 27.25 32.08 36.28 41.11 34.47 42.92 34.47 42.92"/><polygon class="cls-3" points="30.44 44 27.97 43.34 31.28 31 33.75 31.66 30.44 44 30.44 44"/><polygon class="cls-3" points="25.02 40.39 24.36 37.92 36.7 34.61 37.36 37.08 25.02 40.39 25.02 40.39"/></g></g></svg>