<svg xmlns="http://www.w3.org/2000/svg" viewBox="0 0 80.56 66"><defs><style>.cls-1{fill:none;}.cls-2{fill:#f7d34c;}.cls-3{fill:#636363;}.cls-4{fill:#c9c9c9;}</style></defs><title>lightsnowshowerday</title><g id="Layer_2" data-name="Layer 2"><g id="Layer_1-2" data-name="Layer 1"><rect class="cls-1" width="80.56" height="66"/><polygon class="cls-2" points="51.06 12.64 45.06 12.64 45.06 0.64 51.06 0.64 51.06 12.64 51.06 12.64"/><polygon class="cls-2" points="51.06 65.64 45.06 65.64 45.06 53.64 51.06 53.64 51.06 65.64 51.06 65.64"/><polygon class="cls-2" points="68.06 36.64 68.06 30.64 80.06 30.64 80.06 36.64 68.06 36.64 68.06 36.64"/><polygon class="cls-2" points="61.52 63.09 55.54 52.72 60.52 49.85 66.5 60.22 61.52 63.09 61.52 63.09"/><polygon class="cls-2" points="67 25.65 64.13 20.67 74.5 14.68 77.37 19.66 67 25.65 67 25.65"/><polygon class="cls-2" points="74.5 52.22 64.13 46.24 67 41.26 77.37 47.25 74.5 52.22 74.5 52.22"/><polygon class="cls-2" points="60.52 17.06 55.54 14.19 61.52 3.82 66.5 6.69 60.52 17.06 60.52 17.06"/><path class="cls-3" d="M47.73,21.24a12.14,12.14,0,0,0-1.51.1,16.65,16.65,0,0,0-32.18,0,11.72,11.72,0,0,0-1.51-.1,12.2,12.2,0,1,0,0,24.4h7.54v-6H12.51a6.36,6.36,0,1,1,0-12.72,6.53,6.53,0,0,1,5.6,3.26l5-2.87a12.17,12.17,0,0,0-3.64-3.92A10.88,10.88,0,1,1,39,31.64h6.51A12.6,12.6,0,0,0,46.7,27a6.28,6.28,0,0,1,1,0,6.35,6.35,0,1,1,0,12.7H40.06v6h7.67a12.2,12.2,0,1,0,0-24.4Z"/><polygon class="cls-4" points="33.79 51.33 24.76 42.3 26.57 40.49 35.6 49.53 33.79 51.33 33.79 51.33"/><polygon class="cls-4" points="29.76 52.41 27.29 51.75 30.6 39.41 33.07 40.07 29.76 52.41 29.76 52.41"/><polygon class="cls-4" points="24.34 48.8 23.68 46.33 36.02 43.02 36.68 45.49 24.34 48.8 24.34 48.8"/></g></g></svg>