<svg xmlns="http://www.w3.org/2000/svg" viewBox="0 0 70 22.32"><defs><style>.cls-1{fill:none;}.cls-2{fill:#fff;}</style></defs><title>mist</title><g id="Layer_2" data-name="Layer 2"><g id="Layer_1-2" data-name="Layer 1"><rect class="cls-1" width="70" height="22"/><path class="cls-2" d="M.22.76H6.74l4.92,14.48h.06L16.38.76H22.9V21.82H18.57V6.9h-.06L13.35,21.82H9.78L4.62,7H4.56V21.82H.22Z"/><path class="cls-2" d="M26.23.76h4.63V21.82H26.23Z"/><path class="cls-2" d="M37.94,14.83c0,2.8,2.18,3.89,4.66,3.89,1.62,0,4.1-.47,4.1-2.62s-3.16-2.65-6.25-3.48-6.28-2-6.28-6C34.17,2.33,38.24.26,42,.26c4.39,0,8.43,1.92,8.43,6.78H46C45.85,4.51,44,3.86,41.84,3.86c-1.47,0-3.19.62-3.19,2.39s1,1.83,6.28,3.18c1.54.39,6.25,1.36,6.25,6.13,0,3.86-3,6.75-8.76,6.75-4.66,0-9-2.3-9-7.49Z"/><path class="cls-2" d="M58.44,4.65H52.13V.76H69.38V4.65H63.07V21.82H58.44Z"/></g></g></svg>