<svg xmlns="http://www.w3.org/2000/svg" viewBox="0 0 61 39"><defs><style>.cls-1{fill:none;}.cls-2{fill:#636363;}</style></defs><title>overcast</title><g id="Layer_2" data-name="Layer 2"><g id="Layer_1-2" data-name="Layer 1"><rect class="cls-1" width="61" height="39"/><path class="cls-2" d="M48.69,12.78a12.1,12.1,0,0,0-1.51.1,16.66,16.66,0,0,0-32.18,0,12.17,12.17,0,0,0-1.51-.1,12.28,12.28,0,0,0,0,24.55H48.69a12.28,12.28,0,0,0,0-24.55Zm0,18.55H13.48a6.42,6.42,0,1,1,0-12.84,6.51,6.51,0,0,1,5.6,3.23l5-2.87a12.19,12.19,0,0,0-3.64-3.91A10.9,10.9,0,0,1,42,17.11a11.11,11.11,0,0,1-2,6.22h6.51a13,13,0,0,0,1.15-4.75,6.34,6.34,0,0,1,1-.08,6.41,6.41,0,1,1,0,12.82Z"/></g></g></svg>