<svg xmlns="http://www.w3.org/2000/svg" viewBox="0 0 80.26 47"><defs><style>.cls-1{fill:none;}.cls-2{fill:#b3b3b3;}.cls-3{fill:#ddd;}</style></defs><title>partlycloudyday</title><g id="Layer_2" data-name="Layer 2"><g id="Layer_1-2" data-name="Layer 1"><rect class="cls-1" width="80" height="47"/><path class="cls-2" d="M78,29.8A17.66,17.66,0,0,1,63.9,1.4,17.69,17.69,0,0,0,48.45,18.86,15,15,0,0,1,62.59,36.25a17.76,17.76,0,0,0,17.67-6.59A17.31,17.31,0,0,1,78,29.8Z"/><path class="cls-3" d="M47.68,21.71a12,12,0,0,0-1.51.1A16.66,16.66,0,0,0,14,21.8a12.18,12.18,0,1,0-1.51,24.27H47.68a12.18,12.18,0,1,0,0-24.37Zm0,18.37H12.48a6.35,6.35,0,1,1,0-12.7,6.53,6.53,0,0,1,5.6,3.25l5-2.86a12.15,12.15,0,0,0-3.64-3.91A10.88,10.88,0,1,1,39,32.07h6.51a12.49,12.49,0,0,0,1.15-4.66,6.3,6.3,0,0,1,1,0,6.34,6.34,0,1,1,0,12.69Z"/></g></g></svg>