<svg xmlns="http://www.w3.org/2000/svg" viewBox="0 0 81.07 67.1"><defs><style>.cls-1{fill:none;}.cls-2{fill:#f7d34c;}.cls-3{fill:#ddd;}</style></defs><title>partlycloudyday_1</title><g id="Layer_2" data-name="Layer 2"><g id="Layer_1-2" data-name="Layer 1"><polygon class="cls-1" points="81.07 67.1 0 67.1 0.07 0.1 81.07 0 81.07 67.1"/><polygon class="cls-2" points="50.5 12.5 44.5 12.5 44.5 0.5 50.5 0.5 50.5 12.5 50.5 12.5"/><polygon class="cls-2" points="50.5 65.5 44.5 65.5 44.5 53.5 50.5 53.5 50.5 65.5 50.5 65.5"/><polygon class="cls-2" points="68.5 36.5 68.5 30.5 80.5 30.5 80.5 36.5 68.5 36.5 68.5 36.5"/><polygon class="cls-2" points="61.41 63.02 55.42 52.66 60.4 49.78 66.39 60.15 61.41 63.02 61.41 63.02"/><polygon class="cls-2" points="66.89 25.58 64.02 20.61 74.39 14.62 77.26 19.6 66.89 25.58 66.89 25.58"/><polygon class="cls-2" points="74.39 52.16 64.02 46.17 66.89 41.2 77.26 47.18 74.39 52.16 74.39 52.16"/><polygon class="cls-2" points="60.4 16.99 55.42 14.12 61.41 3.75 66.39 6.63 60.4 16.99 60.4 16.99"/><path class="cls-3" d="M47.61,21.18a12.21,12.21,0,0,0-1.51.1,16.65,16.65,0,0,0-32.18,0,11.7,11.7,0,0,0-1.51-.1,12.16,12.16,0,1,0,0,24.32H47.61a12.16,12.16,0,1,0,0-24.32Zm0,18.32H12.4a6.32,6.32,0,0,1-6.47-6.29,6.4,6.4,0,0,1,6.47-6.38A6.54,6.54,0,0,1,18,30.11l5-2.86a12.17,12.17,0,0,0-3.64-3.91A10.91,10.91,0,0,1,30,14.63,10.68,10.68,0,0,1,38.93,31.5h6.51a12.42,12.42,0,0,0,1.15-4.63,6.42,6.42,0,0,1,1,0,6.33,6.33,0,1,1,0,12.65Z"/></g></g></svg>