<svg xmlns="http://www.w3.org/2000/svg" viewBox="0 0 61 58"><defs><style>.cls-1{fill:none;}.cls-2{fill:#636363;}.cls-3{fill:#7ab4df;}.cls-4{fill:#c9c9c9;}</style></defs><title>sleet</title><g id="Layer_2" data-name="Layer 2"><g id="Layer_1-2" data-name="Layer 1"><rect class="cls-1" width="61" height="58"/><path class="cls-2" d="M48,12.8a12.2,12.2,0,0,0-1.51.1,16.65,16.65,0,0,0-32.18,0,11.81,11.81,0,0,0-1.51-.1,12.27,12.27,0,0,0,0,24.53h7.68v-6H12.75a6.41,6.41,0,1,1,0-12.82,6.51,6.51,0,0,1,5.6,3.25l5-2.88A12.23,12.23,0,0,0,19.68,15a10.9,10.9,0,0,1,21.57,2.15,11.07,11.07,0,0,1-2,6.22h6.51a12.93,12.93,0,0,0,1.15-4.74,6.42,6.42,0,1,1,1,12.74H40.43v6H48A12.27,12.27,0,0,0,48,12.8Z"/><path class="cls-3" d="M19.41,52.27c0-.07,0-.14,0-.21l1-11.42-9.93,5.69h0a6,6,0,1,0,8.92,6h0Z"/><polygon class="cls-4" points="34.03 42.88 25 33.85 26.8 32.05 35.84 41.08 34.03 42.88 34.03 42.88"/><polygon class="cls-4" points="30 43.97 27.53 43.3 30.83 30.97 33.3 31.63 30 43.97 30 43.97"/><polygon class="cls-4" points="24.58 40.35 23.91 37.88 36.25 34.58 36.91 37.05 24.58 40.35 24.58 40.35"/></g></g></svg>