<svg xmlns="http://www.w3.org/2000/svg" viewBox="0 0 82.06 65.6"><defs><style>.cls-1{fill:none;}.cls-2{fill:#b3b3b3;}.cls-3{fill:#636363;}.cls-4{fill:#7ab4df;}.cls-5{fill:#c9c9c9;}</style></defs><title>sleetshowernight</title><g id="Layer_2" data-name="Layer 2"><g id="Layer_1-2" data-name="Layer 1"><rect class="cls-1" width="82.06" height="65.6"/><path class="cls-2" d="M79.41,28.51A17.67,17.67,0,0,1,65.32.11,17.69,17.69,0,0,0,49.87,17.57a15.09,15.09,0,0,1,14.33,15A14.85,14.85,0,0,1,64,35a17.77,17.77,0,0,0,17.67-6.59A17.62,17.62,0,0,1,79.41,28.51Z"/><path class="cls-3" d="M49.1,20.46a12.14,12.14,0,0,0-1.51.1,16.65,16.65,0,0,0-32.18,0,11.8,11.8,0,0,0-1.51-.1,12,12,0,1,0,0,24h7.67v-5H13.89a6.63,6.63,0,0,1-6.47-6.65,6.55,6.55,0,0,1,6.47-6.55,6.45,6.45,0,0,1,5.6,3.18l5-2.91a12.25,12.25,0,0,0-3.64-3.94,10.92,10.92,0,0,1,10.68-8.71A11.09,11.09,0,0,1,42.39,25a11.87,11.87,0,0,1-2,6.46h6.51a22.92,22.92,0,0,0,1.15-5,6.53,6.53,0,0,1,1-.19,6.59,6.59,0,0,1,0,13.18H41.56v5H49.1a12,12,0,1,0,0-24Z"/><path class="cls-4" d="M20.55,59.93c0-.07,0-.14,0-.21l1-11.37-9.93,5.73h0A6,6,0,1,0,20.55,60h0Z"/><polygon class="cls-5" points="35.04 50.51 26.01 41.48 27.81 39.67 36.85 48.71 35.04 50.51 35.04 50.51"/><polygon class="cls-5" points="31.01 51.59 28.54 50.93 31.85 38.59 34.31 39.26 31.01 51.59 31.01 51.59"/><polygon class="cls-5" points="25.59 47.98 24.93 45.51 37.27 42.21 37.93 44.67 25.59 47.98 25.59 47.98"/></g></g></svg>