<svg xmlns="http://www.w3.org/2000/svg" viewBox="0 0 82 66.6"><defs><style>.cls-1{fill:none;}.cls-2{fill:#f7d34c;}.cls-3{fill:#636363;}.cls-4{fill:#7ab4df;}.cls-5{fill:#c9c9c9;}</style></defs><title>sleetshowerday</title><g id="Layer_2" data-name="Layer 2"><g id="Layer_1-2" data-name="Layer 1"><rect class="cls-1" width="82" height="66.6"/><polygon class="cls-2" points="50.93 11.5 44.93 11.5 44.93 0.5 50.93 0.5 50.93 11.5 50.93 11.5"/><polygon class="cls-2" points="50.93 65.5 44.93 65.5 44.93 53.5 50.93 53.5 50.93 65.5 50.93 65.5"/><polygon class="cls-2" points="68.93 35.5 68.93 29.5 80.93 29.5 80.93 35.5 68.93 35.5 68.93 35.5"/><polygon class="cls-2" points="61.69 62.22 55.71 51.86 60.68 48.98 66.67 59.35 61.69 62.22 61.69 62.22"/><polygon class="cls-2" points="67.17 24.78 64.3 19.8 74.67 13.82 77.54 18.79 67.17 24.78 67.17 24.78"/><polygon class="cls-2" points="74.67 51.35 64.3 45.37 67.17 40.4 77.54 46.38 74.67 51.35 74.67 51.35"/><polygon class="cls-2" points="60.68 16.19 55.71 13.32 61.69 2.95 66.67 5.82 60.68 16.19 60.68 16.19"/><path class="cls-3" d="M47.9,20.38a12.43,12.43,0,0,0-1.51.1,16.65,16.65,0,0,0-32.18,0,11.82,11.82,0,0,0-1.51-.1,12.06,12.06,0,1,0,0,24.12h7.24v-5H12.68a6.67,6.67,0,0,1-6.47-6.69,6.57,6.57,0,0,1,6.47-6.58,6.45,6.45,0,0,1,5.6,3.17l5-2.91a12.26,12.26,0,0,0-3.64-3.94,10.92,10.92,0,0,1,10.68-8.71,10.7,10.7,0,0,1,10.9,10.65c0,2.25-.68,5-2,6h6.51A11.86,11.86,0,0,0,46.87,26a6.58,6.58,0,0,1,1,0,6.76,6.76,0,0,1,0,13.5h-8v5h8a12.06,12.06,0,1,0,0-24.12Z"/><path class="cls-4" d="M19.35,59.66c0-.07,0,0,0-.11l1-11.57L10.42,53.5h0c-1.8,2-3,3.22-3,5.45a5.93,5.93,0,0,0,6,5.92,6,6,0,0,0,5.95-5.36h0Z"/><polygon class="cls-5" points="33.96 50.47 24.93 41.43 26.73 39.63 35.77 48.66 33.96 50.47 33.96 50.47"/><polygon class="cls-5" points="29.93 51.55 27.46 50.88 30.77 38.55 33.23 39.21 29.93 51.55 29.93 51.55"/><polygon class="cls-5" points="24.51 47.93 23.85 45.47 36.19 42.16 36.85 44.63 24.51 47.93 24.51 47.93"/></g></g></svg>