<svg xmlns="http://www.w3.org/2000/svg" viewBox="0 0 67 66.17"><defs><style>.cls-1{fill:none;}.cls-2{fill:#f7d34c;}</style></defs><title>sunnyday</title><g id="Layer_2" data-name="Layer 2"><g id="Layer_1-2" data-name="Layer 1"><rect class="cls-1" width="67" height="66.17"/><circle class="cls-2" cx="33.17" cy="32.68" r="17.77"/><polygon class="cls-2" points="35.93 12.5 29.93 12.5 29.93 0.5 35.93 0.5 35.93 12.5 35.93 12.5"/><polygon class="cls-2" points="20.35 16.23 14.35 5.84 19.34 2.96 25.34 13.35 20.35 16.23 20.35 16.23"/><polygon class="cls-2" points="47 62.39 41 52 45.99 49.12 51.99 59.51 47 62.39 47 62.39"/><polygon class="cls-2" points="60.01 51.5 49.61 45.5 52.49 40.51 62.89 46.51 60.01 51.5 60.01 51.5"/><polygon class="cls-2" points="12.93 35.5 0.93 35.5 0.93 29.5 12.93 29.5 12.93 35.5 12.93 35.5"/><polygon class="cls-2" points="65.93 35.5 53.93 35.5 53.93 29.5 65.93 29.5 65.93 35.5 65.93 35.5"/><polygon class="cls-2" points="6.33 51.5 3.45 46.51 13.85 40.51 16.73 45.5 6.33 51.5 6.33 51.5"/><polygon class="cls-2" points="52.49 24.85 49.61 19.86 60.01 13.86 62.89 18.85 52.49 24.85 52.49 24.85"/><polygon class="cls-2" points="45.99 16.23 41 13.35 47 2.96 51.99 5.84 45.99 16.23 45.99 16.23"/><polygon class="cls-2" points="19.34 62.39 14.35 59.51 20.35 49.12 25.34 52 19.34 62.39 19.34 62.39"/><polygon class="cls-2" points="35.93 65.5 29.93 65.5 29.93 53.5 35.93 53.5 35.93 65.5 35.93 65.5"/><polygon class="cls-2" points="13.85 24.85 3.45 18.85 6.33 13.86 16.73 19.86 13.85 24.85 13.85 24.85"/></g></g></svg>