<svg xmlns="http://www.w3.org/2000/svg" viewBox="0 0 60 65"><defs><style>.cls-1{fill:none;}.cls-2{fill:#f9ea3a;}.cls-3{fill:#636363;}</style></defs><title>thunder</title><g id="Layer_2" data-name="Layer 2"><g id="Layer_1-2" data-name="Layer 1"><rect class="cls-1" width="60" height="65"/><polygon class="cls-2" points="28.59 29.76 20.24 45.76 29.82 45.76 22.87 63.88 23.5 64.21 39.16 40.76 29.82 40.76 37.16 29.76 28.59 29.76"/><path class="cls-3" d="M47.75,13a12.21,12.21,0,0,0-1.51.1,16.65,16.65,0,0,0-32.18,0,11.81,11.81,0,0,0-1.51-.1,12.36,12.36,0,0,0,0,24.72h7.88v-6H12.54A6.48,6.48,0,1,1,18.14,22l5-2.89a12.22,12.22,0,0,0-3.64-3.93A10.9,10.9,0,0,1,41,17.45a11.37,11.37,0,0,1-2,6.31h6.51a21.78,21.78,0,0,0,1.15-4.83,6.37,6.37,0,0,1,1-.11,6.47,6.47,0,0,1,0,12.94H40.43v6h7.33a12.36,12.36,0,0,0,0-24.72Z"/></g></g></svg>