<svg xmlns="http://www.w3.org/2000/svg" viewBox="0 0 80.18 73"><defs><style>.cls-1{fill:none;}.cls-2{fill:#f9ea3a;}.cls-3{fill:#636363;}.cls-4{fill:#b3b3b3;}</style></defs><title>thundershowernight</title><g id="Layer_2" data-name="Layer 2"><g id="Layer_1-2" data-name="Layer 1"><rect class="cls-1" width="80" height="73"/><polygon class="cls-2" points="28.39 37.39 20.06 54.39 29.61 54.39 22.67 72.15 23.3 72.65 38.93 49.39 29.61 49.39 36.94 37.39 28.39 37.39"/><path class="cls-3" d="M47.5,20.93A12.05,12.05,0,0,0,46,21a16.6,16.6,0,0,0-32.11,0,11.64,11.64,0,0,0-1.51-.1,12.23,12.23,0,0,0,0,24.46H20.5v-6H12.37a6.38,6.38,0,1,1,0-12.77A6.5,6.5,0,0,1,18,29.88l5-2.87a12.18,12.18,0,0,0-3.63-3.92,10.86,10.86,0,1,1,19.56,8.3h6.49a12.82,12.82,0,0,0,1.15-4.7,6.32,6.32,0,0,1,1,0,6.37,6.37,0,1,1,0,12.75h-8v6h8a12.23,12.23,0,0,0,0-24.46Z"/><path class="cls-4" d="M77.92,29A17.67,17.67,0,0,1,63.86.64,17.68,17.68,0,0,0,48.45,18.1,15,15,0,0,1,62.55,35.48a17.71,17.71,0,0,0,17.63-6.59A17.44,17.44,0,0,1,77.92,29Z"/></g></g></svg>