<svg xmlns="http://www.w3.org/2000/svg" viewBox="0 0 81.07 72.6"><defs><style>.cls-1{fill:none;}.cls-2{fill:#f9ea3a;}.cls-3{fill:#f7d34c;}.cls-4{fill:#636363;}</style></defs><title>thundershowerday</title><g id="Layer_2" data-name="Layer 2"><g id="Layer_1-2" data-name="Layer 1"><rect class="cls-1" width="81.07" height="72.6"/><polygon class="cls-2" points="28.68 37.5 20.29 53.5 29.91 53.5 22.92 71.51 23.56 71.89 39.29 48.5 29.91 48.5 37.28 37.5 28.68 37.5"/><polygon class="cls-3" points="50.5 12.5 44.5 12.5 44.5 0.5 50.5 0.5 50.5 12.5 50.5 12.5"/><polygon class="cls-3" points="50.5 65.5 44.5 65.5 44.5 53.5 50.5 53.5 50.5 65.5 50.5 65.5"/><polygon class="cls-3" points="68.5 35.5 68.5 29.5 80.5 29.5 80.5 35.5 68.5 35.5 68.5 35.5"/><polygon class="cls-3" points="61.64 62.4 55.65 52.03 60.63 49.16 66.62 59.53 61.64 62.4 61.64 62.4"/><polygon class="cls-3" points="67.12 24.96 64.24 19.98 74.61 13.99 77.49 18.97 67.12 24.96 67.12 24.96"/><polygon class="cls-3" points="74.61 51.53 64.24 45.55 67.11 40.57 77.49 46.56 74.61 51.53 74.61 51.53"/><polygon class="cls-3" points="60.63 16.37 55.65 13.5 61.64 3.13 66.62 6 60.63 16.37 60.63 16.37"/><path class="cls-4" d="M47.84,20.55a12.21,12.21,0,0,0-1.51.1,16.65,16.65,0,0,0-32.18,0,11.72,11.72,0,0,0-1.51-.1,12,12,0,1,0,0,23.95H20.5v-5H12.63a6.57,6.57,0,0,1,0-13.13,6.46,6.46,0,0,1,5.6,3.19l5-2.9a12.23,12.23,0,0,0-3.64-3.93A10.92,10.92,0,0,1,30.23,14a11.05,11.05,0,0,1,10.9,11.06,11.73,11.73,0,0,1-2,6.42h6.51a22.64,22.64,0,0,0,1.15-4.95,6.48,6.48,0,0,1,1-.17,6.56,6.56,0,0,1,0,13.11H40.5v5h7.34a12,12,0,1,0,0-23.95Z"/></g></g></svg>